<svg width="30" height="30" viewBox="0 0 30 30" fill="none" xmlns="http://www.w3.org/2000/svg">
<circle cx="15" cy="15" r="13.5" stroke="#E20000" stroke-width="3"/>
<path d="M18.3945 9.40234L17.4102 18.4727L12.4883 18.4961L11.5039 9.40234V5.89844H18.3945V9.40234ZM14.9375 25.3867C13.9766 25.3867 13.1914 25.1289 12.582 24.6133C11.9727 24.082 11.668 23.3789 11.668 22.5039C11.668 21.6055 11.9727 20.8945 12.582 20.3711C13.207 19.8398 13.9844 19.5742 14.9141 19.5742H14.9375C15.875 19.5742 16.6758 19.8398 17.3398 20.3711C17.9805 20.8945 18.3008 21.6055 18.3008 22.5039C18.3008 23.3789 17.9883 24.082 17.3633 24.6133C16.7227 25.1289 15.9141 25.3867 14.9375 25.3867Z" fill="#E20000"/>
</svg>
