<svg width="45" height="45" viewBox="0 0 45 45" fill="none" xmlns="http://www.w3.org/2000/svg">
<circle cx="22.5" cy="22.5" r="21" stroke="white" stroke-width="3"/>
<path d="M27.8652 35.7305C28.028 35.7305 28.1745 35.7467 28.3047 35.7793C28.793 35.8444 29.0371 36.2513 29.0371 37H17.3184V35.7305C17.9694 35.7305 18.4902 35.6816 18.8809 35.584C19.9551 35.3236 20.4922 34.4935 20.4922 33.0938V17.3223H17.3184V16.1016H25.8633V35.7305H27.8652ZM26.3516 9.46094C26.3516 10.0143 26.2214 10.5352 25.9609 11.0234C25.3424 12.1628 24.3659 12.7324 23.0312 12.7324C22.5104 12.7324 22.0059 12.6185 21.5176 12.3906C20.3132 11.8047 19.7109 10.8281 19.7109 9.46094C19.7109 8.9401 19.8411 8.41927 20.1016 7.89844C20.7201 6.69401 21.6966 6.0918 23.0312 6.0918C23.5521 6.0918 24.0566 6.22201 24.5449 6.48242C25.7493 7.13346 26.3516 8.1263 26.3516 9.46094Z" fill="white"/>
</svg>
