<svg width="50" height="60" viewBox="0 0 50 60" fill="none" xmlns="http://www.w3.org/2000/svg">
<path fill-rule="evenodd" clip-rule="evenodd" d="M25.4574 49.7368C27.9293 48.2613 39.5834 40.6097 39.5834 27.5C39.5834 17.835 33.0542 10 25.0001 10C16.9459 10 10.4167 17.835 10.4167 27.5C10.4167 40.6097 22.0709 48.2613 24.5428 49.7368C24.8309 49.9088 25.1693 49.9088 25.4574 49.7368ZM25.0001 35C28.4519 35 31.2501 31.6421 31.2501 27.5C31.2501 23.3579 28.4519 20 25.0001 20C21.5483 20 18.7501 23.3579 18.7501 27.5C18.7501 31.6421 21.5483 35 25.0001 35Z" fill="#039D5F"/>
</svg>
