<svg xmlns="http://www.w3.org/2000/svg" version="1.1" xmlns:xlink="http://www.w3.org/1999/xlink" xmlns:svgjs="http://svgjs.dev/svgjs" width="1500" height="352" viewBox="0 0 1500 352"><g transform="matrix(1,0,0,1,-0.9090909090909918,-0.17031186357044703)"><svg viewBox="0 0 396 93" data-background-color="#1d366f" preserveAspectRatio="xMidYMid meet" height="352" width="1500" xmlns="http://www.w3.org/2000/svg" xmlns:xlink="http://www.w3.org/1999/xlink"><g id="tight-bounds" transform="matrix(1,0,0,1,0.2400000000000091,0.04499716850014579)"><svg viewBox="0 0 395.52 92.91000566299972" height="92.91000566299972" width="395.52"><g><svg viewBox="0 0 636.0538181622538 149.41283335211267" height="92.91000566299972" width="395.52"><g><rect width="9.174783332485708" height="145.3035915813173" x="419.537757414884" y="2.054620885397682" fill="#08c076" opacity="1" stroke-width="0" stroke="transparent" fill-opacity="1" class="rect-qz-0" data-fill-palette-color="secondary" rx="1%" id="qz-0" data-palette-color="#08c076"></rect></g><g transform="matrix(1,0,0,1,0,2.416072605749207)"><svg viewBox="0 0 395.52 144.58068814061426" height="144.58068814061426" width="395.52"><g id="textblocktransform"><svg viewBox="0 0 395.52 144.58068814061426" height="144.58068814061426" width="395.52" id="textblock"><g><svg viewBox="0 0 395.52 101.7373956475205" height="101.7373956475205" width="395.52"><g transform="matrix(1,0,0,1,0,0)"><svg width="395.52" viewBox="4.05 -35.3 140.14 36.05" height="101.7373956475205" data-palette-color="#ffffff"><path d="M22.5 0L14.85-13.85 10.65-13.85 10.65 0 4.05 0 4.05-34.55 14.35-34.55Q28.05-34.55 28.05-24.4L28.05-24.4Q28.05-20.95 26.35-18.7 24.65-16.45 21.05-15.05L21.05-15.05 30.1 0 22.5 0ZM10.65-29.75L10.65-18.6 14.75-18.6Q17.9-18.6 19.53-19.98 21.15-21.35 21.15-24.4L21.15-24.4Q21.15-27.2 19.48-28.48 17.8-29.75 14.2-29.75L14.2-29.75 10.65-29.75ZM34.6-34.55L54.65-34.55 53.95-29.65 41.2-29.65 41.2-20 52.3-20 52.3-15.1 41.2-15.1 41.2-4.95 54.85-4.95 54.85 0 34.6 0 34.6-34.55ZM86.4 0L79.4 0 77.25-8 65.8-8 63.65 0 56.8 0 67.55-34.55 75.7-34.55 86.4 0ZM71.5-29.5L67.09-13 75.9-13 71.5-29.5ZM103.44-35.3Q106.59-35.3 108.94-34.4 111.29-33.5 113.54-31.65L113.54-31.65 110.19-27.75Q107.14-30.2 103.79-30.2L103.79-30.2Q99.94-30.2 97.62-27.1 95.29-24 95.29-17.35L95.29-17.35Q95.29-10.85 97.59-7.7 99.89-4.55 103.79-4.55L103.79-4.55Q105.84-4.55 107.44-5.28 109.04-6 110.84-7.35L110.84-7.35 113.94-3.45Q112.19-1.65 109.52-0.45 106.84 0.75 103.54 0.75L103.54 0.75Q99.04 0.75 95.59-1.35 92.14-3.45 90.24-7.53 88.34-11.6 88.34-17.35L88.34-17.35Q88.34-23 90.32-27.05 92.29-31.1 95.72-33.2 99.14-35.3 103.44-35.3L103.44-35.3ZM144.19 0L137.54 0 137.54-15.45 125.24-15.45 125.24 0 118.64 0 118.64-34.55 125.24-34.55 125.24-20.7 137.54-20.7 137.54-34.55 144.19-34.55 144.19 0Z" opacity="1" transform="matrix(1,0,0,1,0,0)" fill="#ffffff" class="wordmark-text-0" data-fill-palette-color="primary" id="text-0"></path></svg></g></svg></g><g transform="matrix(1,0,0,1,0,125.75515306240456)"><svg viewBox="0 0 395.52 18.825535078209693" height="18.825535078209693" width="395.52"><g transform="matrix(1,0,0,1,0,0)"><svg width="395.52" viewBox="3.9 -35.6 968.4300000000001 46.1" height="18.825535078209693" data-palette-color="#08c076"><path d="M20.05 0L16.7-9.75 9.4-9.75 9.4 0 3.9 0 3.9-35 15.75-35Q19.05-35 21.25-33.38 23.45-31.75 24.53-29.05 25.6-26.35 25.6-23.1L25.6-23.1Q25.6-20.65 25.4-18.85 25.2-17.05 24.38-15.1 23.55-13.15 21.75-11.6L21.75-11.6 25.65 0 20.05 0ZM14.45-15Q16.9-15 18.07-16.28 19.25-17.55 19.53-19.2 19.8-20.85 19.8-23.1L19.8-23.1Q19.8-25.75 19.05-27.13 18.3-28.5 16.95-28.98 15.6-29.45 13.45-29.45L13.45-29.45 9.4-29.45 9.4-15 14.45-15ZM35.5-8.85L35.5-7.45Q35.5-6.05 36.27-5.28 37.05-4.5 38.55-4.5L38.55-4.5Q40.85-4.5 44.7-6.5L44.7-6.5 46.7-1.75Q44.9-0.6 42.6 0 40.3 0.6 38 0.6L38 0.6Q34.3 0.6 32.12-1.23 29.95-3.05 29.95-6.7L29.95-6.7 29.95-16.95Q29.95-21 32.47-23.25 35-25.5 39.15-25.5L39.15-25.5Q43.3-25.5 45.62-23.28 47.95-21.05 47.95-17.1L47.95-17.1 47.95-9.5 35.5-8.85ZM42.4-17Q42.4-18.5 41.45-19.3 40.5-20.1 39.1-20.1L39.1-20.1Q37.2-20.1 36.35-19.1 35.5-18.1 35.5-16.9L35.5-16.9 35.5-13.9 42.4-14.35 42.4-17ZM57.2-6.9Q57.2-6 58.12-5.2 59.05-4.4 60.95-4.4L60.95-4.4Q62.6-4.4 63.5-5.23 64.4-6.05 64.4-7.15L64.4-7.15Q64.4-8.7 63.27-9.45 62.15-10.2 59.65-11.1L59.65-11.1Q57.5-11.8 56.1-12.5 54.7-13.2 53.6-14.6 52.5-16 52.3-18.25L52.3-18.25Q52.15-19.95 52.97-21.68 53.8-23.4 55.77-24.53 57.75-25.65 60.85-25.65L60.85-25.65Q62.45-25.65 63.67-25.33 64.9-25 65.6-24.65 66.3-24.3 66.45-24.2L66.45-24.2 64.85-19.1Q64.75-19.2 64.32-19.48 63.9-19.75 63-20 62.1-20.25 60.85-20.25L60.85-20.25Q58.15-20.25 58.15-18.75L58.15-18.75Q58.15-18.45 58.25-18.15L58.25-18.15Q58.4-17.45 59.3-16.98 60.2-16.5 61.95-15.85L61.95-15.85Q64.4-14.95 66.07-14.08 67.75-13.2 68.97-11.48 70.2-9.75 70.2-7.05L70.2-7.05Q70.2-5 69.2-3.23 68.2-1.45 66.12-0.35 64.05 0.75 60.95 0.75L60.95 0.75Q58.1 0.75 56.02-0.23 53.95-1.2 52.87-2.8 51.8-4.4 51.7-6.35L51.7-6.35 57.2-6.9ZM78.74-8.85L78.74-7.45Q78.74-6.05 79.52-5.28 80.29-4.5 81.79-4.5L81.79-4.5Q84.09-4.5 87.94-6.5L87.94-6.5 89.94-1.75Q88.14-0.6 85.84 0 83.54 0.6 81.24 0.6L81.24 0.6Q77.54 0.6 75.37-1.23 73.19-3.05 73.19-6.7L73.19-6.7 73.19-16.95Q73.19-21 75.72-23.25 78.24-25.5 82.39-25.5L82.39-25.5Q86.54-25.5 88.87-23.28 91.19-21.05 91.19-17.1L91.19-17.1 91.19-9.5 78.74-8.85ZM85.64-17Q85.64-18.5 84.69-19.3 83.74-20.1 82.34-20.1L82.34-20.1Q80.44-20.1 79.59-19.1 78.74-18.1 78.74-16.9L78.74-16.9 78.74-13.9 85.64-14.35 85.64-17ZM114.24 0Q108.84 0.55 106.44 0.55L106.44 0.55Q101.19 0.55 98.09-1.4 94.99-3.35 94.99-8.45L94.99-8.45 94.99-12.6Q94.99-17.55 98.44-19.25L98.44-19.25Q100.09-20.05 102.19-20.05L102.19-20.05Q104.04-20.05 105.84-19.55 107.64-19.05 108.74-18.45L108.74-18.45Q108.74-20.3 107.24-20.98 105.74-21.65 103.39-21.65L103.39-21.65 103.84-25.45Q108.64-25.45 110.92-23.93 113.19-22.4 113.72-20.3 114.24-18.2 114.24-14.9L114.24-14.9 114.24 0ZM108.74-12.6Q107.84-13.25 106.22-13.83 104.59-14.4 103.24-14.4L103.24-14.4Q102.04-14.4 101.29-13.8 100.54-13.2 100.54-11.9L100.54-11.9 100.54-9.15Q100.54-4.6 105.89-4.6L105.89-4.6Q107.44-4.6 108.74-4.85L108.74-4.85 108.74-12.6ZM119.09 0L119.09-25.05 124.19-25.05 124.59-24.85Q126.64-25.55 128.44-25.55L128.44-25.55Q129.69-25.55 132.09-25.05L132.09-25.05 133.09-24.85 131.79-19.5Q130.39-20.2 129.04-20.2L129.04-20.2Q127.19-20.2 125.89-19.07 124.59-17.95 124.59-16.1L124.59-16.1 124.59 0 119.09 0ZM150.24-0.3Q147.14 0.5 144.24 0.5L144.24 0.5Q141.54 0.5 139.74-0.1L139.74-0.1Q136.79-1.1 135.46-3.18 134.14-5.25 134.14-9L134.14-9 134.14-15.4Q134.14-20.35 136.74-22.93 139.34-25.5 143.44-25.5L143.44-25.5Q146.69-25.5 150.14-23.9L150.14-23.9 148.64-19.15Q146.24-20.1 144.34-20.1L144.34-20.1Q142.09-20.1 140.86-18.85 139.64-17.6 139.64-15.7L139.64-15.7 139.64-8.45Q139.64-6.55 140.99-5.75 142.34-4.95 144.44-4.95L144.44-4.95Q145.64-4.95 146.84-5.2 148.04-5.45 148.74-5.7L148.74-5.7 150.24-0.3ZM165.93 0L165.93-15.35Q165.93-18.05 164.76-19.2 163.58-20.35 161.78-20.35L161.78-20.35Q160.83-20.35 159.93-20.08 159.03-19.8 158.48-19.45L158.48-19.45 158.48 0 152.98 0 152.98-35 158.48-35 158.48-24.85Q160.23-25.5 162.53-25.5L162.53-25.5Q165.13-25.5 167.18-24.55L167.18-24.55Q169.18-23.65 170.31-21.85 171.43-20.05 171.43-17.3L171.43-17.3 171.43 0 165.93 0ZM192.23 0L192.23-35 208.93-35 208.93-29.5 197.73-29.5 197.73-20.65 204.58-20.65 203.03-15.4 197.73-15.4 197.73-5 208.83-5 208.83 0 192.23 0ZM227.73 0L227.73-15.75Q227.73-17.75 226.6-18.98 225.48-20.2 223.58-20.2L223.58-20.2Q222.03-20.2 220.23-19.3L220.23-19.3 220.23 0 214.78 0 214.78-25.05 219.63-25.05 220.28-24.75Q222.38-25.45 224.63-25.45L224.63-25.45Q227.13-25.45 228.98-24.55L228.98-24.55Q230.98-23.65 232.1-21.85 233.23-20.05 233.23-17.3L233.23-17.3 233.23 0 227.73 0ZM248.12 6.2Q249.82 6.2 250.8 5.23 251.77 4.25 251.77 2.3L251.77 2.3 251.77-0.4Q251.37-0.1 250.35 0.25 249.32 0.6 247.72 0.6L247.72 0.6Q243.32 0.6 240.87-1.8 238.42-4.2 238.42-8.8L238.42-8.8 238.42-16.25Q238.42-20.65 241-23.08 243.57-25.5 247.92-25.5L247.92-25.5Q249.32-25.5 250.42-25.18 251.52-24.85 251.82-24.5L251.82-24.5 252.87-25.05 257.27-25.05 257.27 3.2Q257.27 10.5 249.42 10.5L249.42 10.5 248.12 6.2ZM251.77-15.75Q251.77-17.75 250.87-18.9 249.97-20.05 247.72-20.05L247.72-20.05Q245.67-20.05 244.8-18.88 243.92-17.7 243.92-16L243.92-16 243.92-9.55Q243.92-4.7 247.72-4.7L247.72-4.7Q250.17-4.7 250.97-6.3 251.77-7.9 251.77-11.55L251.77-11.55 251.77-15.75ZM281.07 0Q275.67 0.55 273.27 0.55L273.27 0.55Q268.02 0.55 264.92-1.4 261.82-3.35 261.82-8.45L261.82-8.45 261.82-12.6Q261.82-17.55 265.27-19.25L265.27-19.25Q266.92-20.05 269.02-20.05L269.02-20.05Q270.87-20.05 272.67-19.55 274.47-19.05 275.57-18.45L275.57-18.45Q275.57-20.3 274.07-20.98 272.57-21.65 270.22-21.65L270.22-21.65 270.67-25.45Q275.47-25.45 277.75-23.93 280.02-22.4 280.55-20.3 281.07-18.2 281.07-14.9L281.07-14.9 281.07 0ZM275.57-12.6Q274.67-13.25 273.05-13.83 271.42-14.4 270.07-14.4L270.07-14.4Q268.87-14.4 268.12-13.8 267.37-13.2 267.37-11.9L267.37-11.9 267.37-9.15Q267.37-4.6 272.72-4.6L272.72-4.6Q274.27-4.6 275.57-4.85L275.57-4.85 275.57-12.6ZM295.42 6.2Q297.12 6.2 298.09 5.23 299.07 4.25 299.07 2.3L299.07 2.3 299.07-0.4Q298.67-0.1 297.64 0.25 296.62 0.6 295.02 0.6L295.02 0.6Q290.62 0.6 288.17-1.8 285.72-4.2 285.72-8.8L285.72-8.8 285.72-16.25Q285.72-20.65 288.29-23.08 290.87-25.5 295.22-25.5L295.22-25.5Q296.62-25.5 297.72-25.18 298.82-24.85 299.12-24.5L299.12-24.5 300.17-25.05 304.57-25.05 304.57 3.2Q304.57 10.5 296.72 10.5L296.72 10.5 295.42 6.2ZM299.07-15.75Q299.07-17.75 298.17-18.9 297.27-20.05 295.02-20.05L295.02-20.05Q292.97-20.05 292.09-18.88 291.22-17.7 291.22-16L291.22-16 291.22-9.55Q291.22-4.7 295.02-4.7L295.02-4.7Q297.47-4.7 298.27-6.3 299.07-7.9 299.07-11.55L299.07-11.55 299.07-15.75ZM315.07-8.85L315.07-7.45Q315.07-6.05 315.84-5.28 316.62-4.5 318.12-4.5L318.12-4.5Q320.42-4.5 324.27-6.5L324.27-6.5 326.27-1.75Q324.47-0.6 322.17 0 319.87 0.6 317.57 0.6L317.57 0.6Q313.87 0.6 311.69-1.23 309.52-3.05 309.52-6.7L309.52-6.7 309.52-16.95Q309.52-21 312.04-23.25 314.57-25.5 318.72-25.5L318.72-25.5Q322.87-25.5 325.19-23.28 327.52-21.05 327.52-17.1L327.52-17.1 327.52-9.5 315.07-8.85ZM321.97-17Q321.97-18.5 321.02-19.3 320.07-20.1 318.67-20.1L318.67-20.1Q316.77-20.1 315.92-19.1 315.07-18.1 315.07-16.9L315.07-16.9 315.07-13.9 321.97-14.35 321.97-17ZM359.06 0L359.06-15.2Q359.06-17.9 358.34-19.1 357.61-20.3 356.01-20.3L356.01-20.3Q354.86-20.3 352.91-19.6L352.91-19.6 352.06-19.25Q352.16-18.95 352.21-18.55 352.26-18.15 352.26-17.8L352.26-17.8 352.26 0 346.76 0 346.76-15.05Q346.76-17.55 345.61-18.9 344.46-20.25 342.51-20.25L342.51-20.25Q340.76-20.25 338.86-19.15L338.86-19.15 338.86 0 333.36 0 333.36-25.05 338.21-25.05 338.86-24.7Q340.51-25.45 342.61-25.45L342.61-25.45Q344.31-25.45 345.91-24.88 347.51-24.3 348.71-23.05L348.71-23.05Q349.41-23.45 350.81-24.15L350.81-24.15Q353.76-25.5 356.51-25.5L356.51-25.5Q360.06-25.5 362.31-23.33 364.56-21.15 364.56-17.3L364.56-17.3 364.56 0 359.06 0ZM373.81-8.85L373.81-7.45Q373.81-6.05 374.59-5.28 375.36-4.5 376.86-4.5L376.86-4.5Q379.16-4.5 383.01-6.5L383.01-6.5 385.01-1.75Q383.21-0.6 380.91 0 378.61 0.6 376.31 0.6L376.31 0.6Q372.61 0.6 370.44-1.23 368.26-3.05 368.26-6.7L368.26-6.7 368.26-16.95Q368.26-21 370.79-23.25 373.31-25.5 377.46-25.5L377.46-25.5Q381.61-25.5 383.94-23.28 386.26-21.05 386.26-17.1L386.26-17.1 386.26-9.5 373.81-8.85ZM380.71-17Q380.71-18.5 379.76-19.3 378.81-20.1 377.41-20.1L377.41-20.1Q375.51-20.1 374.66-19.1 373.81-18.1 373.81-16.9L373.81-16.9 373.81-13.9 380.71-14.35 380.71-17ZM404.36 0L404.36-15.75Q404.36-17.75 403.23-18.98 402.11-20.2 400.21-20.2L400.21-20.2Q398.66-20.2 396.86-19.3L396.86-19.3 396.86 0 391.41 0 391.41-25.05 396.26-25.05 396.91-24.75Q399.01-25.45 401.26-25.45L401.26-25.45Q403.76-25.45 405.61-24.55L405.61-24.55Q407.61-23.65 408.73-21.85 409.86-20.05 409.86-17.3L409.86-17.3 409.86 0 404.36 0ZM423.01 0.65Q415.41 0.5 415.41-6.6L415.41-6.6 415.41-35 421.01-35 421.01-25.05 425.76-25.05 424.56-19.9 421.01-19.9 421.01-6.6Q421.01-4.9 421.96-4.33 422.91-3.75 424.66-3.75L424.66-3.75 423.01 0.65ZM464.9 0.55Q463.4 0.6 461.53 0 459.65-0.6 458.3-2.1L458.3-2.1Q457.55-1.2 455.8-0.33 454.05 0.55 451.45 0.55L451.45 0.55Q448.65 0.55 446.65-0.75 444.65-2.05 443.6-4.25 442.55-6.45 442.55-9.05L442.55-9.05Q442.55-12.6 444.15-15.13 445.75-17.65 447.73-18.98 449.7-20.3 450.95-20.65L450.95-20.65Q449.25-21.4 448.23-23.3 447.2-25.2 447.2-27.5L447.2-27.5Q447.2-29.85 448.45-31.7 449.7-33.55 451.8-34.55 453.9-35.55 456.3-35.55L456.3-35.55Q458.05-35.55 459.85-34.95L459.85-34.95 456.7-30.1Q456.45-30.3 455.85-30.3L455.85-30.3Q454.95-30.3 454.1-29.73 453.25-29.15 453-28.05L453-28.05Q452.9-27.35 452.9-27.1L452.9-27.1Q452.9-25.9 453.55-25.1 454.2-24.3 455.05-23.9 455.9-23.5 456.35-23.55L456.35-23.55 456.9-23.6 456.9-29.75 462.4-30.45 462.4-24.2 466.05-25 467.25-19.45 462.4-18.5 462.4-9.15Q462.4-7.2 463.2-5.78 464-4.35 465.7-3.8L465.7-3.8 464.9 0.55ZM456.9-17.25Q453.4-16.4 450.95-14.9 448.5-13.4 447.95-10.45L447.95-10.45Q447.85-9.75 447.85-9.35L447.85-9.35Q447.85-7.5 448.95-6.28 450.05-5.05 452-5.05L452-5.05Q454.4-5.05 455.65-6.93 456.9-8.8 456.9-11.15L456.9-11.15 456.9-17.25ZM502 0L499.94-9.15 491.89-9.15 489.94 0 483.75 0 491.94-35 499.69-35 508.55 0 502 0ZM495.8-25.8L493.19-15 498.64-15 495.8-25.8ZM525.84-0.3Q522.74 0.5 519.84 0.5L519.84 0.5Q517.14 0.5 515.34-0.1L515.34-0.1Q512.39-1.1 511.07-3.18 509.74-5.25 509.74-9L509.74-9 509.74-15.4Q509.74-20.35 512.34-22.93 514.94-25.5 519.04-25.5L519.04-25.5Q522.29-25.5 525.74-23.9L525.74-23.9 524.24-19.15Q521.84-20.1 519.94-20.1L519.94-20.1Q517.69-20.1 516.47-18.85 515.24-17.6 515.24-15.7L515.24-15.7 515.24-8.45Q515.24-6.55 516.59-5.75 517.94-4.95 520.04-4.95L520.04-4.95Q521.24-4.95 522.44-5.2 523.64-5.45 524.34-5.7L524.34-5.7 525.84-0.3ZM544.99-0.3Q541.89 0.5 538.99 0.5L538.99 0.5Q536.29 0.5 534.49-0.1L534.49-0.1Q531.54-1.1 530.21-3.18 528.89-5.25 528.89-9L528.89-9 528.89-15.4Q528.89-20.35 531.49-22.93 534.09-25.5 538.19-25.5L538.19-25.5Q541.44-25.5 544.89-23.9L544.89-23.9 543.39-19.15Q540.99-20.1 539.09-20.1L539.09-20.1Q536.84-20.1 535.61-18.85 534.39-17.6 534.39-15.7L534.39-15.7 534.39-8.45Q534.39-6.55 535.74-5.75 537.09-4.95 539.19-4.95L539.19-4.95Q540.39-4.95 541.59-5.2 542.79-5.45 543.49-5.7L543.49-5.7 544.99-0.3ZM553.54-8.85L553.54-7.45Q553.54-6.05 554.31-5.28 555.09-4.5 556.59-4.5L556.59-4.5Q558.89-4.5 562.74-6.5L562.74-6.5 564.74-1.75Q562.94-0.6 560.64 0 558.34 0.6 556.04 0.6L556.04 0.6Q552.34 0.6 550.16-1.23 547.99-3.05 547.99-6.7L547.99-6.7 547.99-16.95Q547.99-21 550.51-23.25 553.04-25.5 557.19-25.5L557.19-25.5Q561.34-25.5 563.66-23.28 565.99-21.05 565.99-17.1L565.99-17.1 565.99-9.5 553.54-8.85ZM560.44-17Q560.44-18.5 559.49-19.3 558.54-20.1 557.14-20.1L557.14-20.1Q555.24-20.1 554.39-19.1 553.54-18.1 553.54-16.9L553.54-16.9 553.54-13.9 560.44-14.35 560.44-17ZM575.23-6.9Q575.23-6 576.16-5.2 577.08-4.4 578.98-4.4L578.98-4.4Q580.63-4.4 581.53-5.23 582.43-6.05 582.43-7.15L582.43-7.15Q582.43-8.7 581.31-9.45 580.18-10.2 577.68-11.1L577.68-11.1Q575.53-11.8 574.13-12.5 572.73-13.2 571.63-14.6 570.53-16 570.33-18.25L570.33-18.25Q570.18-19.95 571.01-21.68 571.83-23.4 573.81-24.53 575.78-25.65 578.88-25.65L578.88-25.65Q580.48-25.65 581.71-25.33 582.93-25 583.63-24.65 584.33-24.3 584.48-24.2L584.48-24.2 582.88-19.1Q582.78-19.2 582.36-19.48 581.93-19.75 581.03-20 580.13-20.25 578.88-20.25L578.88-20.25Q576.18-20.25 576.18-18.75L576.18-18.75Q576.18-18.45 576.28-18.15L576.28-18.15Q576.43-17.45 577.33-16.98 578.23-16.5 579.98-15.85L579.98-15.85Q582.43-14.95 584.11-14.08 585.78-13.2 587.01-11.48 588.23-9.75 588.23-7.05L588.23-7.05Q588.23-5 587.23-3.23 586.23-1.45 584.16-0.35 582.08 0.75 578.98 0.75L578.98 0.75Q576.13 0.75 574.06-0.23 571.98-1.2 570.91-2.8 569.83-4.4 569.73-6.35L569.73-6.35 575.23-6.9ZM596.78-6.9Q596.78-6 597.71-5.2 598.63-4.4 600.53-4.4L600.53-4.4Q602.18-4.4 603.08-5.23 603.98-6.05 603.98-7.15L603.98-7.15Q603.98-8.7 602.86-9.45 601.73-10.2 599.23-11.1L599.23-11.1Q597.08-11.8 595.68-12.5 594.28-13.2 593.18-14.6 592.08-16 591.88-18.25L591.88-18.25Q591.73-19.95 592.56-21.68 593.38-23.4 595.36-24.53 597.33-25.65 600.43-25.65L600.43-25.65Q602.03-25.65 603.26-25.33 604.48-25 605.18-24.65 605.88-24.3 606.03-24.2L606.03-24.2 604.43-19.1Q604.33-19.2 603.91-19.48 603.48-19.75 602.58-20 601.68-20.25 600.43-20.25L600.43-20.25Q597.73-20.25 597.73-18.75L597.73-18.75Q597.73-18.45 597.83-18.15L597.83-18.15Q597.98-17.45 598.88-16.98 599.78-16.5 601.53-15.85L601.53-15.85Q603.98-14.95 605.66-14.08 607.33-13.2 608.56-11.48 609.78-9.75 609.78-7.05L609.78-7.05Q609.78-5 608.78-3.23 607.78-1.45 605.71-0.35 603.63 0.75 600.53 0.75L600.53 0.75Q597.68 0.75 595.61-0.23 593.53-1.2 592.46-2.8 591.38-4.4 591.28-6.35L591.28-6.35 596.78-6.9ZM628.83 0L628.83-27.45Q628.83-31.85 631.13-33.73 633.43-35.6 636.78-35.6L636.78-35.6Q637.98-35.6 639.23-35.35L639.23-35.35 638.33-30.35Q637.73-30.6 637.08-30.6L637.08-30.6Q635.98-30.6 635.2-29.9 634.43-29.2 634.43-27.45L634.43-27.45 634.43-25.05 638.78-25.05 637.58-19.9 634.43-19.9 634.43 0 628.83 0ZM659.52-9.2Q659.52-5 657.22-2.25 654.92 0.5 650.27 0.5L650.27 0.5Q645.62 0.5 643.25-2.27 640.87-5.05 640.87-9.2L640.87-9.2 640.87-15.8Q640.87-20.55 643.3-23.08 645.72-25.6 650.27-25.6L650.27-25.6Q654.62-25.6 657.07-22.98 659.52-20.35 659.52-15.8L659.52-15.8 659.52-9.2ZM654.07-15.8Q654.07-18.45 652.97-19.25 651.87-20.05 650.27-20.05L650.27-20.05Q646.37-20.05 646.37-15.8L646.37-15.8 646.37-8.7Q646.37-6.7 647.47-5.8 648.57-4.9 650.27-4.9L650.27-4.9Q651.92-4.9 653-5.85 654.07-6.8 654.07-8.7L654.07-8.7 654.07-15.8ZM664.52 0L664.52-25.05 669.62-25.05 670.02-24.85Q672.07-25.55 673.87-25.55L673.87-25.55Q675.12-25.55 677.52-25.05L677.52-25.05 678.52-24.85 677.22-19.5Q675.82-20.2 674.47-20.2L674.47-20.2Q672.62-20.2 671.32-19.07 670.02-17.95 670.02-16.1L670.02-16.1 670.02 0 664.52 0ZM715.72-1.15Q711.27 0.5 707.42 0.5L707.42 0.5Q703.07 0.5 700.37-1.8 697.67-4.1 697.67-9.15L697.67-9.15 697.67-25.2Q697.67-29 698.74-30.95 699.82-32.9 702.02-34.25L702.02-34.25Q704.22-35.5 707.42-35.5L707.42-35.5Q711.32-35.5 714.47-33.85L714.47-33.85 712.92-28.85Q710.62-29.7 707.87-29.7L707.87-29.7Q705.77-29.7 704.47-28.55 703.17-27.4 703.17-25.65L703.17-25.65 703.17-9.25Q703.17-5.05 707.87-5.05L707.87-5.05Q709.37-5.05 710.87-5.38 712.37-5.7 714.87-6.35L714.87-6.35 715.72-1.15ZM719.76 0L719.76-35 725.26-35 725.26 0 719.76 0ZM736.16-29.6Q734.96-29.6 734.06-30.5 733.16-31.4 733.16-32.6L733.16-32.6Q733.16-33.75 734.06-34.63 734.96-35.5 736.16-35.5L736.16-35.5Q737.31-35.5 738.19-34.63 739.06-33.75 739.06-32.6L739.06-32.6Q739.06-31.4 738.19-30.5 737.31-29.6 736.16-29.6L736.16-29.6ZM733.26 0L733.26-25.05 738.76-25.05 738.76 0 733.26 0ZM759.21 0L759.21-15.75Q759.21-17.75 758.08-18.98 756.96-20.2 755.06-20.2L755.06-20.2Q753.51-20.2 751.71-19.3L751.71-19.3 751.71 0 746.26 0 746.26-25.05 751.11-25.05 751.76-24.75Q753.86-25.45 756.11-25.45L756.11-25.45Q758.61-25.45 760.46-24.55L760.46-24.55Q762.46-23.65 763.58-21.85 764.71-20.05 764.71-17.3L764.71-17.3 764.71 0 759.21 0ZM774.96-29.6Q773.76-29.6 772.86-30.5 771.96-31.4 771.96-32.6L771.96-32.6Q771.96-33.75 772.86-34.63 773.76-35.5 774.96-35.5L774.96-35.5Q776.11-35.5 776.98-34.63 777.86-33.75 777.86-32.6L777.86-32.6Q777.86-31.4 776.98-30.5 776.11-29.6 774.96-29.6L774.96-29.6ZM772.06 0L772.06-25.05 777.56-25.05 777.56 0 772.06 0ZM798.15-0.3Q795.05 0.5 792.15 0.5L792.15 0.5Q789.45 0.5 787.65-0.1L787.65-0.1Q784.7-1.1 783.38-3.18 782.05-5.25 782.05-9L782.05-9 782.05-15.4Q782.05-20.35 784.65-22.93 787.25-25.5 791.35-25.5L791.35-25.5Q794.6-25.5 798.05-23.9L798.05-23.9 796.55-19.15Q794.15-20.1 792.25-20.1L792.25-20.1Q790-20.1 788.78-18.85 787.55-17.6 787.55-15.7L787.55-15.7 787.55-8.45Q787.55-6.55 788.9-5.75 790.25-4.95 792.35-4.95L792.35-4.95Q793.55-4.95 794.75-5.2 795.95-5.45 796.65-5.7L796.65-5.7 798.15-0.3ZM820.5 0Q815.1 0.55 812.7 0.55L812.7 0.55Q807.45 0.55 804.35-1.4 801.25-3.35 801.25-8.45L801.25-8.45 801.25-12.6Q801.25-17.55 804.7-19.25L804.7-19.25Q806.35-20.05 808.45-20.05L808.45-20.05Q810.3-20.05 812.1-19.55 813.9-19.05 815-18.45L815-18.45Q815-20.3 813.5-20.98 812-21.65 809.65-21.65L809.65-21.65 810.1-25.45Q814.9-25.45 817.18-23.93 819.45-22.4 819.98-20.3 820.5-18.2 820.5-14.9L820.5-14.9 820.5 0ZM815-12.6Q814.1-13.25 812.48-13.83 810.85-14.4 809.5-14.4L809.5-14.4Q808.3-14.4 807.55-13.8 806.8-13.2 806.8-11.9L806.8-11.9 806.8-9.15Q806.8-4.6 812.15-4.6L812.15-4.6Q813.7-4.6 815-4.85L815-4.85 815-12.6ZM826.2 0L826.2-35 831.7-35 831.7 0 826.2 0ZM869.54 0L869.54-15.4 858.99-15.4 858.99 0 853.49 0 853.49-35 858.99-35 858.99-20.65 869.54-20.65 869.54-35 874.99-35 874.99 0 869.54 0ZM886.29-8.85L886.29-7.45Q886.29-6.05 887.07-5.28 887.84-4.5 889.34-4.5L889.34-4.5Q891.64-4.5 895.49-6.5L895.49-6.5 897.49-1.75Q895.69-0.6 893.39 0 891.09 0.6 888.79 0.6L888.79 0.6Q885.09 0.6 882.92-1.23 880.74-3.05 880.74-6.7L880.74-6.7 880.74-16.95Q880.74-21 883.27-23.25 885.79-25.5 889.94-25.5L889.94-25.5Q894.09-25.5 896.42-23.28 898.74-21.05 898.74-17.1L898.74-17.1 898.74-9.5 886.29-8.85ZM893.19-17Q893.19-18.5 892.24-19.3 891.29-20.1 889.89-20.1L889.89-20.1Q887.99-20.1 887.14-19.1 886.29-18.1 886.29-16.9L886.29-16.9 886.29-13.9 893.19-14.35 893.19-17ZM921.79 0Q916.39 0.55 913.99 0.55L913.99 0.55Q908.74 0.55 905.64-1.4 902.54-3.35 902.54-8.45L902.54-8.45 902.54-12.6Q902.54-17.55 905.99-19.25L905.99-19.25Q907.64-20.05 909.74-20.05L909.74-20.05Q911.59-20.05 913.39-19.55 915.19-19.05 916.29-18.45L916.29-18.45Q916.29-20.3 914.79-20.98 913.29-21.65 910.94-21.65L910.94-21.65 911.39-25.45Q916.19-25.45 918.46-23.93 920.74-22.4 921.26-20.3 921.79-18.2 921.79-14.9L921.79-14.9 921.79 0ZM916.29-12.6Q915.39-13.25 913.76-13.83 912.14-14.4 910.79-14.4L910.79-14.4Q909.59-14.4 908.84-13.8 908.09-13.2 908.09-11.9L908.09-11.9 908.09-9.15Q908.09-4.6 913.44-4.6L913.44-4.6Q914.99-4.6 916.29-4.85L916.29-4.85 916.29-12.6ZM927.49 0L927.49-35 932.99-35 932.99 0 927.49 0ZM946.78 0.65Q939.18 0.5 939.18-6.6L939.18-6.6 939.18-35 944.78-35 944.78-25.05 949.53-25.05 948.33-19.9 944.78-19.9 944.78-6.6Q944.78-4.9 945.73-4.33 946.68-3.75 948.43-3.75L948.43-3.75 946.78 0.65ZM966.83 0L966.83-15.35Q966.83-18.05 965.66-19.2 964.48-20.35 962.68-20.35L962.68-20.35Q961.73-20.35 960.83-20.08 959.93-19.8 959.38-19.45L959.38-19.45 959.38 0 953.88 0 953.88-35 959.38-35 959.38-24.85Q961.13-25.5 963.43-25.5L963.43-25.5Q966.03-25.5 968.08-24.55L968.08-24.55Q970.08-23.65 971.21-21.85 972.33-20.05 972.33-17.3L972.33-17.3 972.33 0 966.83 0Z" opacity="1" transform="matrix(1,0,0,1,0,0)" fill="#08c076" class="slogan-text-1" data-fill-palette-color="secondary" id="text-1"></path></svg></g></svg></g></svg></g></svg></g><g transform="matrix(1,0,0,1,452.7302981622538,0)"><svg viewBox="0 0 183.32352 149.41283335211267" height="149.41283335211267" width="183.32352"><g><svg xmlns="http://www.w3.org/2000/svg" xmlns:xlink="http://www.w3.org/1999/xlink" version="1.1" x="8" y="0" viewBox="14.5 18.300000000000004 71 63.4" enable-background="new 0 0 100 100" xml:space="preserve" height="149.41283335211267" width="167.32352" class="icon-icon-0" data-fill-palette-color="accent" id="icon-0"><g fill="#08c076" data-fill-palette-color="accent"><g fill="#08c076" data-fill-palette-color="accent"><path d="M75.2 56.2c-5.7 0-10.3-4.6-10.3-10.3s4.6-10.3 10.3-10.3c5.7 0 10.3 4.6 10.3 10.3S80.9 56.2 75.2 56.2zM75.2 37.6c-4.6 0-8.3 3.7-8.3 8.3s3.7 8.3 8.3 8.3 8.3-3.7 8.3-8.3S79.8 37.6 75.2 37.6z" fill="#08c076" data-fill-palette-color="accent"></path></g><g fill="#08c076" data-fill-palette-color="accent"><path d="M24.8 81.7c-5.7 0-10.3-4.6-10.3-10.3 0-5.7 4.6-10.3 10.3-10.3 5.7 0 10.3 4.6 10.3 10.3C35.1 77.1 30.4 81.7 24.8 81.7zM24.8 63.1c-4.6 0-8.3 3.7-8.3 8.3s3.7 8.3 8.3 8.3 8.3-3.7 8.3-8.3S29.3 63.1 24.8 63.1z" fill="#08c076" data-fill-palette-color="accent"></path></g><g fill="#08c076" data-fill-palette-color="accent"><path d="M45.7 32.7c-4 0-7.2-3.2-7.2-7.2 0-4 3.2-7.2 7.2-7.2s7.2 3.2 7.2 7.2C52.9 29.5 49.6 32.7 45.7 32.7zM45.7 20.3c-2.9 0-5.2 2.3-5.2 5.2 0 2.9 2.3 5.2 5.2 5.2s5.2-2.3 5.2-5.2C50.9 22.6 48.5 20.3 45.7 20.3z" fill="#08c076" data-fill-palette-color="accent"></path></g><g fill="#08c076" data-fill-palette-color="accent"><path d="M62.4 74.7c-4.3 0-7.8-3.5-7.8-7.8s3.5-7.8 7.8-7.8 7.8 3.5 7.8 7.8S66.7 74.7 62.4 74.7zM62.4 61.1c-3.2 0-5.8 2.6-5.8 5.8s2.6 5.8 5.8 5.8c3.2 0 5.8-2.6 5.8-5.8S65.6 61.1 62.4 61.1z" fill="#08c076" data-fill-palette-color="accent"></path></g><g fill="#08c076" data-fill-palette-color="accent"><path d="M45.7 56.2c-4 0-7.2-3.2-7.2-7.2s3.2-7.2 7.2-7.2 7.2 3.2 7.2 7.2S49.6 56.2 45.7 56.2zM45.7 43.8c-2.9 0-5.2 2.3-5.2 5.2 0 2.9 2.3 5.2 5.2 5.2s5.2-2.3 5.2-5.2C50.9 46.1 48.5 43.8 45.7 43.8z" fill="#08c076" data-fill-palette-color="accent"></path></g><g fill="#08c076" data-fill-palette-color="accent"><rect x="35.1" y="51.2" transform="matrix(0.7071 0.7071 -0.7071 0.7071 51.9963 -8.3525)" width="2" height="14.9" fill="#08c076" data-fill-palette-color="accent"></rect></g><g fill="#08c076" data-fill-palette-color="accent"><rect x="51" y="46" width="15" height="2" fill="#08c076" data-fill-palette-color="accent"></rect></g><g fill="#08c076" data-fill-palette-color="accent"><rect x="44" y="32" width="2" height="11" fill="#08c076" data-fill-palette-color="accent"></rect></g><g fill="#08c076" data-fill-palette-color="accent"><rect x="47.6" y="57.3" transform="matrix(0.7071 0.7071 -0.7071 0.7071 56.9419 -20.9103)" width="12.2" height="2" fill="#08c076" data-fill-palette-color="accent"></rect></g></g></svg></g></svg></g></svg></g><defs></defs></svg><rect width="395.52" height="92.91000566299972" fill="none" stroke="none" visibility="hidden"></rect></g></svg></g></svg>