<svg width="220" height="158" viewBox="0 0 220 158" fill="none" xmlns="http://www.w3.org/2000/svg">
<g clip-path="url(#clip0_0_1)">
<g clip-path="url(#clip1_0_1)">
<g clip-path="url(#clip2_0_1)">
<g clip-path="url(#clip3_0_1)">
<g clip-path="url(#clip4_0_1)">
<g clip-path="url(#clip5_0_1)">
<path d="M140.687 49.5688C133.701 49.5688 128.063 43.5526 128.063 36.0976C128.063 28.6427 133.701 22.6265 140.687 22.6265C147.672 22.6265 153.31 28.6427 153.31 36.0976C153.31 43.5526 147.672 49.5688 140.687 49.5688ZM140.687 25.2422C135.049 25.2422 130.515 30.0814 130.515 36.0976C130.515 42.1139 135.049 46.9531 140.687 46.9531C146.324 46.9531 150.859 42.1139 150.859 36.0976C150.859 30.0814 146.324 25.2422 140.687 25.2422Z" fill="#08C076"/>
<path d="M78.9188 82.9197C71.9332 82.9197 66.2957 76.9034 66.2957 69.4485C66.2957 61.9936 71.9332 55.9773 78.9188 55.9773C85.9045 55.9773 91.542 61.9936 91.542 69.4485C91.542 76.9034 85.7819 82.9197 78.9188 82.9197ZM78.9188 58.5931C73.2813 58.5931 68.7468 63.4322 68.7468 69.4485C68.7468 75.4647 73.2813 80.3039 78.9188 80.3039C84.5564 80.3039 89.0909 75.4647 89.0909 69.4485C89.0909 63.4322 84.4338 58.5931 78.9188 58.5931Z" fill="#08C076"/>
<path d="M104.533 18.8335C99.6306 18.8335 95.7089 14.6483 95.7089 9.41675C95.7089 4.18522 99.6306 0 104.533 0C109.435 0 113.357 4.18522 113.357 9.41675C113.357 14.6483 109.312 18.8335 104.533 18.8335ZM104.533 2.61576C100.979 2.61576 98.16 5.62389 98.16 9.41675C98.16 13.2096 100.979 16.2177 104.533 16.2177C108.087 16.2177 110.906 13.2096 110.906 9.41675C110.906 5.62389 107.964 2.61576 104.533 2.61576Z" fill="#08C076"/>
<path d="M125 73.7645C119.73 73.7645 115.44 69.1869 115.44 63.563C115.44 57.9392 119.73 53.3616 125 53.3616C130.269 53.3616 134.559 57.9392 134.559 63.563C134.559 69.1869 130.269 73.7645 125 73.7645ZM125 55.9773C121.078 55.9773 117.891 59.3778 117.891 63.563C117.891 67.7483 121.078 71.1488 125 71.1488C128.921 71.1488 132.108 67.7483 132.108 63.563C132.108 59.3778 128.921 55.9773 125 55.9773Z" fill="#08C076"/>
<path d="M104.533 49.5686C99.6306 49.5686 95.7089 45.3834 95.7089 40.1519C95.7089 34.9203 99.6306 30.7351 104.533 30.7351C109.435 30.7351 113.357 34.9203 113.357 40.1519C113.357 45.3834 109.312 49.5686 104.533 49.5686ZM104.533 33.3509C100.979 33.3509 98.16 36.359 98.16 40.1519C98.16 43.9447 100.979 46.9528 104.533 46.9528C108.087 46.9528 110.906 43.9447 110.906 40.1519C110.906 36.359 107.964 33.3509 104.533 33.3509Z" fill="#08C076"/>
<path d="M100.03 46.8018L98.2972 44.9521L85.3851 58.7317L87.1183 60.5813L100.03 46.8018Z" fill="#08C076"/>
<path d="M129.412 36.2283H111.028V38.844H129.412V36.2283Z" fill="#08C076"/>
<path d="M104.901 17.918H102.449V32.3047H104.901V17.918Z" fill="#08C076"/>
<path d="M120.477 57.0121L109.904 45.7295L108.171 47.5791L118.744 58.8617L120.477 57.0121Z" fill="#08C076"/>
</g>
</g>
</g>
</g>
</g>
</g>
<rect x="220" y="92" width="5" height="220" rx="2.5" transform="rotate(90 220 92)" fill="#08C076"/>
<path d="M25.008 139.272H19.632V157H11.184V112.776H24.368C36.0587 112.776 41.904 117.107 41.904 125.768C41.904 128.712 41.1787 131.144 39.728 133.064C38.2773 134.984 36.016 136.541 32.944 137.736L44.528 157H34.8L25.008 139.272ZM19.632 133.192H24.88C27.568 133.192 29.5947 132.616 30.96 131.464C32.368 130.269 33.072 128.371 33.072 125.768C33.072 123.379 32.3467 121.651 30.896 120.584C29.488 119.475 27.248 118.92 24.176 118.92H19.632V133.192ZM80.453 112.776L79.557 119.048H63.237V131.4H77.445V137.672H63.237V150.664H80.709V157H54.789V112.776H80.453ZM116.631 157L113.878 146.76H99.2225L96.4705 157H87.7025L101.462 112.776H111.895L125.59 157H116.631ZM100.886 140.36H112.15L106.518 119.24L100.886 140.36ZM151.27 111.816C153.958 111.816 156.305 112.2 158.31 112.968C160.315 113.736 162.278 114.909 164.198 116.488L159.91 121.48C157.307 119.389 154.577 118.344 151.718 118.344C148.433 118.344 145.787 119.667 143.782 122.312C141.819 124.957 140.838 129.117 140.838 134.792C140.838 140.339 141.819 144.456 143.782 147.144C145.745 149.832 148.39 151.176 151.718 151.176C153.467 151.176 155.025 150.877 156.39 150.28C157.755 149.64 159.206 148.744 160.742 147.592L164.71 152.584C163.217 154.12 161.318 155.4 159.014 156.424C156.753 157.448 154.214 157.96 151.398 157.96C147.558 157.96 144.166 157.064 141.222 155.272C138.278 153.48 135.995 150.856 134.374 147.4C132.753 143.901 131.942 139.699 131.942 134.792C131.942 129.971 132.774 125.832 134.438 122.376C136.145 118.92 138.449 116.296 141.35 114.504C144.294 112.712 147.601 111.816 151.27 111.816ZM199.421 157V137.224H183.677V157H175.229V112.776H183.677V130.504H199.421V112.776H207.933V157H199.421Z" fill="white"/>
<defs>
<clipPath id="clip0_0_1">
<rect width="96" height="83" fill="white" transform="translate(62)"/>
</clipPath>
<clipPath id="clip1_0_1">
<rect width="331.429" height="83" fill="white" transform="translate(-173.629 -0.0400391)"/>
</clipPath>
<clipPath id="clip2_0_1">
<rect width="330.771" height="82.9197" fill="white" transform="translate(-173.3)"/>
</clipPath>
<clipPath id="clip3_0_1">
<rect width="330.771" height="82.9197" fill="white" transform="translate(-173.3)"/>
</clipPath>
<clipPath id="clip4_0_1">
<rect width="95.3347" height="82.9197" fill="white" transform="translate(62.1354)"/>
</clipPath>
<clipPath id="clip5_0_1">
<rect width="87.0142" height="82.9197" fill="white" transform="translate(66.2957)"/>
</clipPath>
</defs>
</svg>
