<svg width="50" height="50" viewBox="0 0 50 50" fill="none" xmlns="http://www.w3.org/2000/svg">
<path d="M8.33325 18.75C8.33325 12.8574 8.33325 9.91116 10.1638 8.08058C11.9944 6.25 14.9407 6.25 20.8333 6.25H29.1666C35.0591 6.25 38.0054 6.25 39.836 8.08058C41.6666 9.91116 41.6666 12.8574 41.6666 18.75V32.9742C41.6666 38.5644 41.6666 41.3595 39.9076 42.2144C38.1487 43.0693 35.9509 41.3424 31.5552 37.8887L30.1484 36.7833C27.6768 34.8414 26.441 33.8704 24.9999 33.8704C23.5588 33.8704 22.323 34.8414 19.8514 36.7834L18.4446 37.8887C14.049 41.3424 11.8511 43.0693 10.0922 42.2144C8.33325 41.3595 8.33325 38.5644 8.33325 32.9742V18.75Z" fill="#039D5F" stroke="#039D5F" stroke-width="5"/>
</svg>
